<svg id="visual" viewBox="0 0 900 600" width="900" height="600" xmlns="http://www.w3.org/2000/svg" xmlns:xlink="http://www.w3.org/1999/xlink" version="1.1"><rect x="0" y="0" width="900" height="600" fill="#001220"></rect><defs><linearGradient id="grad1_0" x1="33.3%" y1="0%" x2="100%" y2="100%"><stop offset="20%" stop-color="#001220" stop-opacity="1"></stop><stop offset="80%" stop-color="#001220" stop-opacity="1"></stop></linearGradient></defs><defs><linearGradient id="grad2_0" x1="0%" y1="0%" x2="66.7%" y2="100%"><stop offset="20%" stop-color="#001220" stop-opacity="1"></stop><stop offset="80%" stop-color="#001220" stop-opacity="1"></stop></linearGradient></defs><g transform="translate(900, 0)"><path d="M0 297.5C-36.7 285.6 -73.3 273.8 -107.2 258.7C-141 243.6 -172 225.3 -201.5 201.5C-231 177.7 -259.1 148.3 -274.8 113.8C-290.6 79.3 -294 39.7 -297.5 0L0 0Z" fill="#FBAE3C"></path></g><g transform="translate(0, 600)"><path d="M0 -297.5C30.9 -275.5 61.8 -253.5 100.6 -243C139.5 -232.4 186.5 -233.2 210.3 -210.3C234.2 -187.4 235.1 -140.8 245.8 -101.8C256.4 -62.8 276.9 -31.4 297.5 0L0 0Z" fill="#FBAE3C"></path></g></svg>